<svg width="49" height="50" viewBox="0 0 49 50" fill="none" xmlns="http://www.w3.org/2000/svg">
<rect x="0.104553" y="0.838867" width="48.743" height="48.743" rx="24.3715" fill="#0D1B39" style="fill:#0D1B39;fill:color(display-p3 0.0525 0.1053 0.2250);fill-opacity:1;"/>
<path d="M34.227 25.2102C34.227 24.4411 33.6035 23.8176 32.8343 23.8176H25.871V16.8543C25.871 16.0851 25.2475 15.4616 24.4784 15.4616C23.7092 15.4616 23.0857 16.0851 23.0857 16.8543V23.8176H16.1224C15.3533 23.8176 14.7298 24.4411 14.7298 25.2102C14.7298 25.9794 15.3533 26.6029 16.1224 26.6029H23.0857V33.5662C23.0857 34.3353 23.7092 34.9588 24.4784 34.9588C25.2475 34.9588 25.871 34.3353 25.871 33.5662V26.6029H32.8343C33.6035 26.6029 34.227 25.9794 34.227 25.2102Z" fill="white" style="fill:white;fill-opacity:1;"/>
</svg>
